<svg width="60" height="60" viewBox="0 0 60 60" fill="none" xmlns="http://www.w3.org/2000/svg">
<g clipPath="url(#clip0_38_667)">
<rect width="60" height="60" rx="30" fill="#F95A2C"/>
<path fillRule="evenodd"clipRule="evenodd" d="M58.1071 82.918C57.8066 81.2199 57.5311 79.5173 57.2807 77.8111C57.1618 77.001 57.0459 76.1902 56.9416 75.378C56.8686 74.809 56.7574 74.1583 57.1444 73.7369C57.689 73.1437 58.1836 72.636 58.2503 71.7864C58.313 70.9869 58.0428 70.1154 57.8738 69.3394C57.5195 67.7121 57.0784 66.1049 56.5909 64.5129C56.0958 62.8955 55.5528 61.2932 55.002 59.6941C54.487 58.1989 53.992 56.6903 53.3213 55.2558C52.0484 52.5334 49.8949 50.5174 47.2336 49.1712C46.5716 48.8364 45.2216 47.6413 44.5301 47.3738C43.8943 47.1277 43.8966 47.8461 43.2709 47.5755C42.7708 47.3592 42.305 47.0707 42.025 46.5876C41.7209 46.063 40.9583 45.3293 40.8422 44.7187C40.5962 43.4243 40.8627 42.3227 39.9393 41.3485C39.1195 40.4835 38.0177 39.8908 36.8776 39.5727C34.3695 38.8729 31.0247 39.3622 29.5115 41.6936C28.7887 42.807 28.5361 44.1528 27.5609 45.0615C26.7093 45.8549 26.8999 46.3973 25.7969 46.8062C25.7344 46.8295 24.0412 46.4661 23.9788 46.4894C22.7721 46.2311 21.6189 46.9541 20.5119 47.3738C18.8616 47.9992 17.2903 48.8133 15.8142 49.7808C12.8376 51.7319 10.2882 54.2653 8.18645 57.1322C6.06731 60.0227 4.42308 63.2625 3.25233 66.6486C2.96802 67.4711 2.71263 68.3036 2.48737 69.1442C2.36128 69.6146 2.22654 70.1026 2.38007 70.5842C2.50564 70.9782 2.78496 71.2716 3.11297 71.5081C3.5576 71.8286 4.44947 72.0369 4.4321 72.6815C4.41883 73.1717 4.25262 73.6874 4.1715 74.1718C4.07493 74.7486 3.9956 75.3287 3.91626 75.9081C3.55537 78.545 3.27448 81.1967 3.15025 83.856C3.02797 86.4744 2.92648 89.1463 3.10805 91.764C3.12005 91.9366 3.1715 92.095 3.2545 92.2289C3.17702 92.2586 3.17106 92.403 3.26747 92.4235C3.33503 92.4379 3.40243 92.4521 3.46999 92.4665C3.61032 92.5727 3.78532 92.6378 3.98672 92.6442C4.12325 92.6485 4.25971 92.6546 4.39609 92.6616C5.83527 92.9626 7.27422 93.2469 8.73219 93.4622C10.5045 93.7238 12.2819 93.9371 14.0649 94.1106C17.7287 94.4669 21.3636 94.3487 25.0322 94.1567C28.6951 93.9648 32.3559 93.92 36.0226 94.0154C39.6926 94.111 43.3612 94.2706 47.0319 94.336C51.1329 94.4089 55.2277 94.2969 59.3168 93.9707C59.8775 93.9261 60.2243 93.4799 60.1138 92.9228C59.4513 89.5852 58.7005 86.27 58.1071 82.918Z" fill="white"/>
<path fillRule="evenodd"clipRule="evenodd" d="M22.8347 46.4072C23.2139 46.3907 23.6006 46.4521 23.9789 46.4893C24.0119 46.4925 24.0244 46.5434 23.9873 46.5511C23.3102 46.6927 22.6405 46.8862 21.9755 47.0828L21.6908 47.1671C20.9409 47.3891 20.213 47.618 19.487 47.914C18.0401 48.5039 16.666 49.3001 15.4013 50.2148C10.5313 53.7373 7.00659 59.0703 4.78232 64.5918C4.17827 66.0913 3.66645 67.6281 3.25187 69.1908C3.15106 69.571 3.05621 69.9527 2.96629 70.3356C2.93989 70.4479 2.82484 70.7353 2.88792 70.8502C2.94369 70.9517 3.16053 71.0145 3.26127 71.0673L3.60137 71.2437C4.26476 71.5857 5.36981 72.148 5.48062 72.2028L5.65345 72.2879C8.48026 73.6742 11.5007 74.8498 14.6817 74.9312L14.7066 74.6594C14.8484 73.157 15.0346 71.6467 15.4408 70.1904C15.4626 70.1122 15.5622 70.1386 15.5713 70.2081C15.7976 71.9321 15.7253 73.6694 15.6463 75.4014C15.5065 78.4688 15.3208 81.5346 15.1558 84.6008C15.0732 86.1347 14.9664 87.6676 14.87 89.2006C14.7734 90.7367 14.7422 92.3098 14.5217 93.8332C14.4726 94.1728 14.075 94.3575 13.7739 94.3217C13.4407 94.282 13.1845 93.9884 13.1829 93.652C13.1789 92.7644 13.2903 91.8665 13.3523 90.9812C13.4111 90.1401 13.4743 89.2994 13.539 88.4587C13.7755 85.3906 14.0476 82.326 14.2993 79.2592C14.3885 78.1715 14.4848 77.0847 14.584 75.998C11.2141 75.8894 8.06594 74.6407 5.06261 73.1818C5.01914 74.1692 4.91415 75.1548 4.81252 76.1381C4.5288 78.8821 4.27863 81.6251 4.0914 84.3777C3.99685 85.7679 3.92803 87.1598 3.86808 88.5519C3.83862 89.236 3.81461 89.9204 3.7962 90.6049C3.79003 90.8331 3.78446 91.0613 3.77954 91.2895L3.76929 91.8123C3.76091 92.1435 3.72725 92.4503 3.44865 92.6915C3.16567 92.9364 2.78345 92.9494 2.50339 92.6915C2.12847 92.3461 2.19476 91.8756 2.20587 91.4117C2.21512 91.0205 2.22623 90.6293 2.23913 90.2382C2.265 89.456 2.29804 88.6739 2.33823 87.8922C2.47887 85.1594 2.75987 82.4375 3.1271 79.7265L3.27045 78.68C3.53816 76.7346 3.83207 74.7449 4.43052 72.8709C4.1975 72.755 3.96516 72.6382 3.73371 72.521C3.32316 72.313 2.89866 72.1179 2.49958 71.8883C2.18298 71.7063 1.90992 71.4565 1.82179 71.0879C1.72349 70.6773 1.8738 70.2281 1.97365 69.8276L1.98233 69.7924C2.08023 69.389 2.18567 68.9874 2.29692 68.5875C2.74804 66.9659 3.30586 65.3759 3.95867 63.8247C5.2658 60.7192 6.95298 57.7689 9.01388 55.1014C10.869 52.7002 13.0605 50.5226 15.6289 48.8895C16.8846 48.091 18.2227 47.4354 19.6379 46.9719C20.2994 46.7552 21.0191 46.5668 21.7116 46.4892C22.0852 46.4475 22.4593 46.4235 22.8347 46.4072ZM29.5539 41.4862C30.0046 41.0021 30.9 41.5031 30.6836 42.1442C30.1746 43.6524 29.3641 45.0281 28.0992 46.0192C26.9101 46.9509 25.4923 47.5559 23.9653 47.4268C23.9536 47.4257 23.9433 47.4227 23.9343 47.4185L24.0659 47.597C25.099 48.995 26.1888 50.3737 27.5024 51.5163C30.1788 53.8445 33.8228 55.1002 37.3415 54.2069C40.1099 53.5042 42.549 51.3142 43.2663 48.5232C43.1635 48.5693 43.0412 48.585 42.9071 48.5558C42.3332 48.4312 41.765 47.8273 41.3948 47.3944C40.9944 46.926 40.6817 46.4203 40.4525 45.8486C40.033 44.8023 39.8985 43.4552 40.4713 42.4417C40.542 42.3168 40.705 42.3868 40.7188 42.5088L40.7406 42.6992C40.8511 43.649 40.9886 44.5678 41.4363 45.4337C41.6554 45.8574 41.918 46.2709 42.2377 46.6258C42.4087 46.8156 42.5942 46.997 42.7944 47.1562C42.9895 47.3113 43.2256 47.4234 43.4004 47.6014L43.4325 47.6356L43.4334 47.6294C43.4776 47.2534 43.7412 47.0877 43.9991 47.0981C44.2487 47.1081 44.5419 47.2181 44.6554 47.2707L44.6662 47.2758C46.4074 48.1119 48.0111 49.2019 49.5203 50.4111C52.6413 52.9118 54.9797 56.1809 56.1127 60.0305C56.6688 61.9199 56.9879 63.8667 57.3247 65.8045L57.5321 66.9917C57.8465 68.7806 58.1977 70.6047 58.9074 72.2688C59.091 72.6993 58.9495 73.103 58.4993 73.2723C57.9372 73.4837 57.3731 73.6883 56.808 73.8905C57.0855 75.0812 57.2547 76.3132 57.4626 77.5099C57.9044 80.0535 58.4459 82.5808 58.9101 85.121C59.1474 86.4199 59.3616 87.723 59.5987 89.022C59.7129 89.6475 59.832 90.2722 59.9479 90.8974C60.0103 91.2346 60.0669 91.5728 60.1265 91.9104L60.1368 91.9665C60.171 92.1446 60.2139 92.3288 60.1649 92.507C60.109 92.7103 59.9504 92.8539 59.8088 92.9997C59.6923 93.1197 59.5238 93.1204 59.3811 93.0549L59.3341 93.0332C59.079 92.9139 58.8793 92.7948 58.7888 92.507C58.7315 92.3248 58.7109 92.1195 58.6734 91.9318C58.6016 91.5719 58.5335 91.2115 58.4693 90.8501C58.3407 90.127 58.2151 89.4035 58.0926 88.6793L57.9781 88.0012C57.5851 85.6643 57.2119 83.3131 57.0232 80.9514C56.9395 79.9037 56.8508 78.8569 56.7613 77.8099L56.6941 77.0246C56.6091 76.0306 56.5052 75.0115 56.4905 74.0041L56.1527 74.1241L54.504 74.7071C54.0952 74.8516 53.5747 75.1478 53.1348 75.0939C52.9195 75.0675 52.7553 74.9997 52.6285 74.8765C52.7803 77.0198 52.9858 79.1594 53.2597 81.2881C53.5089 83.225 53.7852 85.1593 54.1115 87.0848C54.273 88.0383 54.4391 88.9908 54.6195 89.9408C54.7096 90.4159 54.8027 90.8904 54.8986 91.3643C54.9464 91.6008 55.0033 91.8375 55.0405 92.0759C55.0832 92.3489 55.008 92.5169 54.8555 92.7415C54.7304 92.926 54.4799 93.0207 54.2768 92.8934C54.008 92.7246 53.8677 92.5784 53.7886 92.271C53.7167 91.9917 53.673 91.7002 53.6174 91.4174C53.5147 90.8954 53.4155 90.3728 53.3197 89.8495C53.1193 88.755 52.9346 87.6579 52.7697 86.5575C52.1884 82.6809 51.8196 78.7719 51.6334 74.8565C51.5414 72.9247 51.513 70.9912 51.5294 69.0575C51.5377 68.0662 51.5701 67.0722 51.6402 66.0835C51.7111 65.0826 51.8588 64.1018 51.9906 63.1106C51.9952 63.0757 52.0444 63.0737 52.0465 63.1106C52.1089 64.2219 52.2068 65.3319 52.2547 66.4461C52.3005 67.5093 52.3206 68.5742 52.3569 69.6377C52.4047 71.0358 52.471 72.4346 52.5588 73.8325C52.7177 73.6586 52.9572 73.5584 53.1968 73.5976C53.544 73.5247 53.9177 73.3424 54.2487 73.2318L55.4965 72.8148C56.1525 72.5957 56.8084 72.378 57.4667 72.1669C56.8781 70.1862 56.475 68.1759 56.1307 66.1364L55.9772 65.2191C55.6733 63.4137 55.3456 61.6073 54.7952 59.8589C54.2165 58.0208 53.3505 56.3118 52.2016 54.7642C51.0692 53.239 49.6915 51.896 48.2729 50.6398C47.0585 49.5645 45.7594 48.5936 44.5207 47.5478C44.5337 47.6171 44.5364 47.6934 44.525 47.7772C44.2616 49.7055 43.2561 51.5012 41.8548 52.8368C39.0396 55.52 34.8724 56.0767 31.2693 54.8185C27.7839 53.6014 24.7023 50.7189 23.6136 47.152C23.595 47.091 23.6767 47.0668 23.7095 47.1116C23.7699 47.1944 23.8306 47.2772 23.8914 47.36C23.8873 47.3271 23.9043 47.2913 23.9449 47.2756C25.2152 46.785 26.4626 46.0891 27.4148 45.1047C27.8789 44.6248 28.2839 44.0811 28.6037 43.4948C28.7568 43.214 28.8944 42.9231 29.0042 42.6226L29.032 42.5449C29.1651 42.1684 29.2762 41.7845 29.5539 41.4862Z" fill="black"/>
<path fillRule="evenodd"clipRule="evenodd" d="M28.634 11.8531L29.278 12.6193C28.9214 12.8707 28.5847 13.1233 28.2681 13.3771L28.2678 13.3764C29.7345 12.419 31.359 11.8531 33.1138 11.8531C36.4937 11.8531 43.3591 14.7576 44.911 16.8526C45.6812 17.8923 47.1125 21.084 47.8549 24.5539C48.4514 27.342 49.3386 35.2187 48.4514 38.1784C47.3159 41.9663 43.5801 45.4673 39.7281 45.4673C35.876 45.4673 29.8956 42.6852 25.6393 36.5885C25.4446 36.3097 23.2096 35.9866 21.6153 34.9402L22.0339 39.5537L22.352 42.2374L22.2818 42.4284C21.1399 45.5179 20.235 47.1297 19.5671 47.2638C18.8856 47.4006 17.4977 46.283 15.4035 43.911L15.1359 42.7874C14.4562 39.9211 14.1163 38.3825 14.1163 38.1717L14.1168 38.1333C14.1268 37.6482 14.2938 34.9025 14.2973 34.1636L14.2973 23.089C16.5497 15.5984 18.699 11.8531 20.7454 11.8531H28.634Z" fill="white"/>
<path fillRule="evenodd"clipRule="evenodd" d="M23.2972 9.30211C23.9594 9.04551 24.7266 9.094 25.3552 9.48039C26.5893 9.42743 27.8166 10.1495 28.46 11.2035C28.4735 11.2184 28.4877 11.2334 28.5004 11.2483L28.6368 11.4073C28.7659 11.5591 28.9021 11.7265 29.01 11.8993C28.4814 11.9113 28.0411 12.1268 27.7338 12.5621C27.5145 12.8727 28.0169 13.1678 28.241 12.8741L28.2489 12.8633C28.4334 12.602 28.712 12.5008 29.0221 12.4955C29.1112 12.494 29.1787 12.4599 29.2264 12.4096C29.2454 12.4789 29.2624 12.549 29.278 12.6193C30.8396 12.0117 32.5229 11.8509 34.1995 11.995C34.126 12.114 34.0646 12.2416 34.0173 12.3756C33.9637 12.5276 34.0781 12.702 34.2256 12.7426C34.3852 12.7865 34.5294 12.6929 34.5872 12.5484L34.5925 12.5342C34.6569 12.3516 34.7621 12.1949 34.9034 12.0734C35.6926 12.1804 36.4763 12.3506 37.2408 12.5701C38.1597 12.8341 39.0699 13.1562 39.9601 13.5251C39.8093 13.5843 39.679 13.6842 39.5878 13.8511C39.4058 14.1842 39.9063 14.4825 40.0962 14.1641L40.1029 14.1523C40.1216 14.1182 40.1381 14.0976 40.1501 14.0859L40.1545 14.082L40.1807 14.0699L40.2296 14.0559L40.2484 14.0512C40.265 14.0475 40.2718 14.0477 40.3154 14.0453C40.3735 14.0421 40.4315 14.0424 40.4896 14.0423C40.6262 14.0422 40.7134 13.966 40.7528 13.8686C41.1921 14.067 41.6258 14.2758 42.0518 14.4946L42.153 14.5471C43.4679 15.2344 44.7136 16.1369 45.4363 17.465C45.4841 17.5537 45.4989 17.6507 45.487 17.7432C45.6413 17.9282 45.7905 18.1192 45.9336 18.3131C46.3706 18.9069 46.6905 19.5819 46.9932 20.2511C47.6024 21.5967 48.0125 22.979 48.3324 24.4201C48.6419 25.8091 48.8916 27.2129 49.1236 28.6168C49.3808 30.1766 49.5948 31.7498 49.6396 33.3319C49.7186 36.1523 49.1675 38.9891 47.5845 41.3635C46.1723 43.4819 44.0457 45.164 41.5238 45.7026C38.9588 46.2501 36.2446 45.716 34.2233 44.0063C33.8973 43.7311 33.9421 43.1754 34.2233 42.8934C34.5416 42.5756 35.0113 42.6196 35.3357 42.8934C37.2393 44.5039 40.0102 44.7523 42.3039 43.9317C44.4245 43.1724 46.0857 41.4209 47.105 39.4538C48.3488 37.0549 48.5584 34.2994 48.3674 31.6453C48.2631 30.1878 48.046 28.7421 47.8223 27.2987L47.6873 26.4299C47.54 25.4888 47.3853 24.549 47.1834 23.6175L47.1362 23.4005C46.8894 22.2772 46.6005 21.1251 46.1537 20.069C45.9194 19.5148 45.6377 18.9807 45.3491 18.4533C45.2932 18.3511 45.2357 18.2475 45.1768 18.143C45.0977 18.1706 45.0075 18.1751 44.9128 18.1453C44.0978 17.8916 43.2605 17.7216 42.4083 17.6649C42.02 17.6389 41.6311 17.6349 41.2427 17.65C40.5778 17.6113 39.8944 17.6698 39.261 17.8737C39.1991 17.8206 39.1363 17.7685 39.0734 17.7164C39.0565 17.7151 39.0396 17.7133 39.0226 17.7099C38.861 17.6782 38.7473 17.5633 38.6789 17.4182C38.6753 17.4105 38.6721 17.4028 38.669 17.3951C38.588 17.3332 38.5063 17.2721 38.4238 17.2119C38.2228 17.2641 38.0467 17.0968 37.9992 16.9134C37.9545 16.8832 37.909 16.854 37.8638 16.8243C37.8284 16.833 37.7932 16.8402 37.7589 16.8427C37.6109 16.8534 37.468 16.8307 37.3368 16.76C37.1707 16.6706 37.0646 16.5263 36.9936 16.3625C36.7425 16.3779 36.4884 16.2964 36.2639 16.149C36.0816 16.0294 35.9421 15.8643 35.8033 15.6995C34.1123 14.945 32.2741 14.4995 30.4316 14.3854C30.2501 14.4203 30.0699 14.4619 29.8919 14.5102C29.8498 14.5217 29.79 14.5442 29.7212 14.5712C30.1319 14.5215 30.548 14.5166 30.97 14.5774C32.9724 14.8671 34.5319 16.3669 35.8741 17.7826C36.1934 17.7181 36.5161 18.1317 36.2206 18.4056L33.9168 20.5413C33.9733 20.7802 33.6995 21.0156 33.4596 20.9582C33.0574 20.8615 32.6546 20.7675 32.2514 20.6751C31.8308 20.8787 31.3021 20.8439 30.9206 20.5488C30.9029 20.535 30.8643 20.5131 30.8308 20.4913C30.7995 20.5172 30.7574 20.5432 30.7406 20.5542C30.605 20.644 30.4398 20.6704 30.2813 20.6452C30.1183 20.6193 29.9712 20.5366 29.8443 20.4336C29.7636 20.368 29.5755 20.0942 29.4707 20.074L29.4606 20.0729C29.5304 20.0749 29.3058 20.2837 29.2455 20.3268C29.1047 20.4273 28.9491 20.4801 28.774 20.4609C28.4687 20.4273 28.2062 20.149 28.057 19.892L28.0457 19.8723L28.041 19.86L28.037 19.8733C28.0363 19.8756 28.0355 19.8781 28.0344 19.8809C28.0121 19.9414 27.9418 20.0102 27.8941 20.0525C27.7581 20.1728 27.5897 20.2257 27.4099 20.1943C27.2576 20.1678 27.1296 20.0758 27.0268 19.9644L27.0107 19.9467C26.9803 19.9124 26.7797 19.6428 26.8114 19.5782L26.8151 19.5728L26.8051 19.5707C26.6831 19.6007 26.5807 19.5706 26.5057 19.5077C26.0871 19.416 25.6739 19.3091 25.274 19.1732C25.2426 19.2612 25.212 19.3492 25.1822 19.438C25.4006 19.573 25.6027 19.7654 25.7884 19.9027C26.1404 20.1623 26.4923 20.4219 26.8435 20.6822L28.235 21.7091L28.3941 21.6663C28.5975 21.6117 28.7719 21.7301 28.8466 21.9111L28.8527 21.9268C28.8823 22.0061 28.918 22.0794 28.9599 22.1496C29.3077 22.1358 29.6022 22.3494 29.6975 22.6558C29.7834 22.6539 29.8701 22.6572 29.9589 22.6669C30.2019 22.6936 30.3657 22.8742 30.3217 23.122L30.3184 23.139L30.3125 23.1666C30.4533 23.2265 30.5555 23.342 30.5781 23.5167C30.6159 23.5735 30.6463 23.6352 30.6658 23.704C30.7674 24.0609 30.5697 24.502 30.4643 24.8439L30.4562 24.8707C30.3886 25.0954 30.3187 25.319 30.2479 25.5425L30.0716 26.0973C29.5827 27.6438 29.1061 29.2744 29.5017 30.8957C29.5861 31.2388 29.1475 31.3939 28.9574 31.1254C28.4964 30.4752 27.9984 29.8626 27.4755 29.2745L27.4501 29.2705C27.084 29.1968 26.9418 28.9381 26.7737 28.6743C26.6747 28.7035 26.5682 28.7103 26.4653 28.6905C26.3163 28.6618 26.1828 28.5767 26.0775 28.4692C25.9882 28.378 25.9064 28.1442 25.8009 28.0863C25.6689 28.0139 25.4036 28.1174 25.246 28.0941C25.1178 28.0752 24.9981 28.0312 24.882 27.976C24.6686 28.267 24.5272 28.609 24.4925 28.9778C24.479 29.1181 24.4373 29.2367 24.3769 29.3351C24.5991 29.3269 24.822 29.3426 25.0421 29.3836C25.8563 29.5351 26.4402 30.0378 26.7682 30.7867C26.7823 30.8196 26.7398 30.8464 26.7204 30.8151C26.2336 30.0654 25.174 30.0274 24.4045 30.2914C23.5872 30.5719 23.1286 31.2917 22.9654 32.113C22.7865 33.0134 23.0161 33.9839 23.506 34.7507C23.7334 35.1072 24.0436 35.4325 24.4559 35.5638C24.9459 35.7197 25.3984 35.4407 25.9002 35.5846C26.2417 35.6824 26.3924 36.0128 26.3305 36.3433C26.3059 36.4731 26.2604 36.5864 26.1992 36.6849C26.3798 37.043 26.5467 37.4115 26.7592 37.7501C27.0873 38.273 27.4841 38.7057 27.9165 39.142C28.3631 39.5926 28.818 40.0342 29.2959 40.4519C29.7538 40.8525 30.2788 41.1374 30.759 41.5044C31.096 41.7618 31.2629 42.1228 31.0967 42.5361C30.9595 42.8777 30.4972 43.1686 30.1228 43.0142C29.4063 42.7188 28.7792 42.2161 28.2081 41.6984C27.6787 41.218 27.2178 40.6436 26.8696 40.02C26.5411 39.4321 26.299 38.7644 26.0948 38.1213L26.0695 38.041C25.9733 37.7352 25.872 37.3913 25.8064 37.0445C25.4134 37.2593 24.8802 37.2906 24.4597 37.2324C23.7803 37.1392 23.1607 36.7968 22.6924 36.2978C22.4742 36.0656 22.2813 35.8007 22.1147 35.5136C22.1299 35.6883 22.1389 35.8574 22.1486 36.0113C22.5379 36.4379 22.694 37.0534 22.5558 37.615C22.8815 37.9504 22.9728 38.4538 22.8028 38.8825C23.1593 39.2362 23.1459 39.7991 22.9917 40.3103C23.4132 40.7815 23.4531 41.5156 23.124 42.0473L23.1141 42.0855C23.4464 42.6416 23.3714 43.3604 22.9551 43.8516C23.2395 44.4033 23.1955 45.1453 22.4849 45.3594C22.226 45.4373 21.975 45.3708 21.7872 45.2257C21.9587 46.0789 22.0354 46.9452 21.8067 47.8024C21.7156 48.1426 21.3831 48.391 21.0334 48.391C20.7411 48.391 20.5286 48.244 20.3817 48.0277C20.3989 48.4581 20.3728 48.8908 20.2811 49.3271C20.2258 49.5907 19.9814 49.7962 19.722 49.8598C19.8156 49.9654 19.8529 50.1181 19.7632 50.277C19.3828 50.9506 18.4638 50.6713 18.4017 50.0259C18.1421 49.8321 18.0215 49.5139 17.9715 49.1701C17.8987 48.6687 17.8723 48.1756 17.7899 47.6805L17.7583 47.71L17.7421 47.7241L17.7369 47.7599C17.6896 48.0046 17.5516 48.1759 17.3726 48.2781C17.4115 48.705 17.3395 49.1396 17.0688 49.4637C16.8885 49.6797 16.5814 49.7648 16.3181 49.7179C16.3016 49.7188 16.2846 49.7187 16.267 49.7164C15.6707 49.6371 15.3257 49.0713 15.4827 48.552C15.2426 48.2576 15.1415 47.8841 15.2125 47.515C14.7479 47.2072 14.7574 46.5313 14.9183 45.9883C14.4312 45.6038 14.248 44.8849 14.4928 44.3136C14.0538 43.7682 13.9927 43.0083 14.291 42.3873C13.808 41.9903 13.8108 41.224 14.2898 40.8181C14.0347 40.3115 13.8809 39.7046 14.1358 39.241C13.956 39.0424 13.8572 38.7594 13.878 38.4859C13.9085 38.0843 14.1741 37.8068 14.5037 37.6219L14.5265 37.4963C14.6039 37.5059 14.6864 37.4843 14.7591 37.4144C14.8311 37.3453 14.9051 37.2896 14.9817 37.2436C15.0684 37.2425 15.143 37.2039 15.1955 37.1444C15.3391 37.0956 15.4936 37.0741 15.6648 37.0721C16.0348 37.0681 16.0478 36.5147 15.7035 36.4788C15.6492 36.424 15.5743 36.3894 15.4931 36.3894L15.4295 36.3897C15.2809 36.3911 15.1308 36.4003 14.9929 36.4594C14.9032 36.4978 14.8341 36.5556 14.7835 36.6263C14.774 36.7332 14.7159 36.8399 14.5899 36.928C14.4444 37.0298 14.2455 37.0416 14.0898 36.9496C13.8718 36.8207 13.8696 36.6195 13.8947 36.4008C13.9498 35.9223 13.6748 35.4721 13.7402 34.9826C13.7692 34.7662 13.8413 34.5793 13.9587 34.4284C13.7111 34.0576 13.6674 33.579 13.8581 33.1719C13.4608 32.7444 13.3922 32.0854 13.6455 31.571C13.6491 31.5585 13.652 31.5457 13.6559 31.5334C13.6845 31.446 13.724 31.3672 13.7675 31.2917C13.5451 30.9064 13.5467 30.4335 13.7728 30.0498C13.4304 29.6506 13.4195 29.0153 13.724 28.5852C13.7258 28.5495 13.7295 28.5139 13.7326 28.4782C13.5928 28.1153 13.6264 27.7027 13.8036 27.3653C13.7404 27.2194 13.6916 27.0624 13.6605 26.8952C13.5806 26.464 13.6217 26.0448 13.741 25.6241C13.7603 25.5577 13.7819 25.4913 13.805 25.4249C13.8089 25.1368 13.8199 24.8499 13.8343 24.5635C13.7776 24.3211 13.7685 24.0547 13.7673 23.8074L13.7669 23.647C13.7641 23.2389 13.7357 22.6413 13.9936 22.2944C13.828 21.9197 13.8961 21.4475 14.1725 21.1504C13.9785 20.8166 13.9378 20.4067 14.1328 20.0364C14.1641 19.9768 14.2004 19.9213 14.2402 19.8688C14.2241 19.5296 14.2955 19.1798 14.4761 18.8427C14.5935 18.6233 14.7688 18.4333 14.9772 18.2812C14.9737 18.2363 14.9715 18.1914 14.9723 18.1471C14.9759 17.9497 15.0197 17.7516 15.0934 17.5666C14.9612 17.3409 14.8999 17.0865 14.9772 16.8123C15.0637 16.5019 15.2912 16.2349 15.5752 16.0842C15.5981 15.7917 15.6438 15.5008 15.7091 15.2139C15.5346 14.825 15.6736 14.3118 16.0681 14.0827C16.0166 13.7719 16.063 13.4497 16.2891 13.207C16.3748 13.115 16.4757 13.0453 16.5844 12.999C16.532 12.6865 16.5911 12.3614 16.8071 12.107C16.9835 11.8993 17.2449 11.773 17.511 11.7545C17.6134 11.211 18.1325 10.8046 18.6801 10.837C18.7486 10.5977 18.9121 10.389 19.1657 10.2833C19.2307 10.2562 19.2963 10.2383 19.3617 10.2284C19.807 9.77907 20.47 9.4745 21.0439 9.31853C21.6196 9.16269 22.2032 9.14761 22.6974 9.32879L22.7335 9.3424L22.7737 9.33717C22.9483 9.31778 23.1227 9.30659 23.2972 9.30211ZM18.9225 46.132C18.7687 46.084 18.5972 46.1887 18.5556 46.3403C18.5116 46.5005 18.6096 46.6593 18.7639 46.7074C18.9562 46.7674 19.1582 46.7824 19.3586 46.7825C19.5198 46.7827 19.6569 46.6453 19.6569 46.4841C19.6569 46.3222 19.5204 46.1859 19.3586 46.1857C19.1956 46.1856 19.0753 46.1796 18.9225 46.132ZM17.5547 42.9633C17.3248 42.9635 17.1276 43.0184 16.9572 43.1795C16.8435 43.287 16.8407 43.4946 16.9572 43.6016C17.0748 43.7095 17.2455 43.7158 17.3662 43.613L17.3895 43.5922C17.3923 43.5896 17.3944 43.5876 17.3962 43.5859C17.4059 43.5797 17.4157 43.5732 17.426 43.5679L17.4065 43.5806C17.3917 43.5913 17.426 43.5738 17.4453 43.5656L17.4514 43.5631L17.4533 43.5626L17.4688 43.5615C17.4973 43.56 17.526 43.56 17.5547 43.56C17.7106 43.5599 17.8601 43.4229 17.8529 43.2617C17.8456 43.1001 17.7218 42.9631 17.5547 42.9633ZM21.8926 41.0702C22.2155 40.8722 21.9271 40.3656 21.6033 40.548L21.5916 40.5549C21.4256 40.6568 21.2215 40.643 21.0334 40.6431C20.6496 40.6433 20.649 41.2401 21.0334 41.2398L21.097 41.2396C21.3726 41.2375 21.6515 41.2182 21.8926 41.0702ZM19.3521 38.8921C19.1081 38.8462 18.8349 38.8052 18.5783 38.8332L18.5356 38.8385H18.4567C18.3881 38.8385 18.3216 38.8661 18.2683 38.9095C18.1839 38.9446 18.104 38.9916 18.0311 39.0548C17.7405 39.3068 18.1639 39.7274 18.4529 39.4768C18.4689 39.4629 18.4876 39.4514 18.5083 39.442L18.5242 39.4353H18.8432C18.8722 39.4353 18.9005 39.4292 18.928 39.4205C19.0316 39.4347 19.1281 39.4553 19.1935 39.4676C19.5687 39.5382 19.7294 38.9632 19.3521 38.8921ZM19.0797 33.1648C18.6121 32.9479 18.0944 32.9495 17.6619 33.2507C17.3528 33.4661 17.64 33.974 17.9518 33.7734L17.963 33.766C18.0017 33.739 18.0416 33.7164 18.0818 33.6958C18.3013 33.7593 18.5223 33.7623 18.7345 33.6843L18.7622 33.6736L18.7786 33.68C19.1246 33.8406 19.4279 33.3264 19.0797 33.1648ZM24.1705 32.2298C23.6982 32.1768 23.6944 31.4304 24.1705 31.4838C25.1758 31.5966 26.0878 32.0437 26.7559 32.8114C27.0666 33.1685 26.5549 33.6908 26.2383 33.3497L26.2286 33.3389C25.6974 32.7284 24.9805 32.3206 24.1705 32.2298ZM18.8795 28.3977C18.7745 28.3862 18.6697 28.3805 18.5666 28.3855C18.3189 28.3974 18.0172 28.5627 18.1259 28.8614C18.2131 29.1007 18.4988 29.1102 18.6399 28.9825C18.6986 28.9839 18.7572 28.9878 18.8156 28.9938C18.9713 29.0098 19.1256 29.0395 19.2792 29.0698C19.6541 29.1436 19.8147 28.5685 19.4378 28.4943L19.271 28.4613C19.2149 28.4503 19.1582 28.4396 19.1012 28.4297C19.0672 28.4128 19.0306 28.4014 18.9916 28.3984L18.9719 28.3977H18.8795ZM15.9159 23.768L15.8808 23.7633C15.3771 23.6988 14.5686 23.7581 14.5075 24.3995C14.4737 24.7548 14.9867 24.7771 15.088 24.4733C15.4599 24.4062 15.8349 24.3934 16.2043 24.4341C16.3452 24.2909 16.3463 24.0156 16.1117 23.9469C16.0786 23.8578 16.0095 23.7815 15.9159 23.768ZM27.4293 22.6847C27.3129 22.5778 27.122 22.5636 27.0075 22.6847C26.9415 22.7544 26.8864 22.8318 26.8427 22.917L26.8137 22.9745C26.8088 22.984 26.8038 22.9935 26.7985 23.0029C26.7888 23.0203 26.7778 23.0368 26.7671 23.0537L26.76 23.0608C26.7571 23.0636 26.7538 23.0671 26.7498 23.0714C26.6425 23.1848 26.6288 23.3823 26.7498 23.4934C26.8662 23.6003 27.057 23.6144 27.1716 23.4934C27.2375 23.4237 27.2926 23.3463 27.3363 23.2611L27.3653 23.2036C27.3702 23.1941 27.3752 23.1846 27.3804 23.1752C27.3902 23.1578 27.4012 23.1412 27.4118 23.1243L27.4237 23.1125C27.4254 23.1107 27.4273 23.1088 27.4293 23.1067C27.5366 22.9933 27.5501 22.7958 27.4293 22.6847ZM21.3129 21.9076C20.8926 21.6097 20.3929 21.5958 20.0066 21.9543C19.7278 22.213 20.1374 22.6275 20.4185 22.3851L20.4284 22.3762C20.4386 22.3667 20.449 22.3583 20.4593 22.3504C20.5097 22.3933 20.5737 22.4206 20.6469 22.4206C20.6661 22.4207 20.6852 22.4206 20.7043 22.421L20.7329 22.422L20.7483 22.4233L20.7502 22.4237L20.7636 22.4294C20.7882 22.4405 20.822 22.4575 20.7756 22.4285C20.7859 22.4339 20.7956 22.4403 20.8055 22.4466L20.8226 22.4622C20.9351 22.5685 21.1296 22.5826 21.2412 22.4649C21.4389 22.3981 21.5438 22.0712 21.3129 21.9076ZM25.4217 20.9301L25.4293 20.9277C25.7978 20.8224 25.6412 20.2465 25.2707 20.3522C24.8777 20.4645 24.69 20.8304 24.6114 21.2051C24.5784 21.3627 24.6576 21.5277 24.8197 21.5722C24.9678 21.6128 25.1534 21.5222 25.1867 21.3638C25.21 21.2524 25.2369 21.1578 25.2795 21.0701L25.3052 21.02C25.3173 20.9972 25.3215 20.9934 25.3621 20.9579C25.369 20.9519 25.4 20.9375 25.4217 20.9301ZM19.1802 17.9246L19.1225 17.9115C18.7635 17.8328 18.2871 17.7917 18.0703 18.1477C17.8727 18.4721 18.3711 18.7673 18.5764 18.4607C18.5795 18.4606 18.5831 18.4607 18.5873 18.461L18.5941 18.4618L18.6861 18.4543C18.8007 18.4535 18.9104 18.4738 19.0216 18.5001C19.3948 18.5885 19.5542 18.0132 19.1802 17.9246ZM32.0675 15.6305C32.3393 15.3586 31.9177 14.9365 31.6458 15.2086C31.4308 15.4237 31.2235 15.6402 31.0837 15.9135C31.0104 16.0568 31.0463 16.2372 31.1907 16.3217C31.324 16.3997 31.5252 16.3587 31.5988 16.2147C31.7199 15.9778 31.8728 15.8255 32.0675 15.6305ZM28.638 14.9168C28.3695 15.0759 28.1957 15.3378 28.0901 15.6411C28.0372 15.7932 28.1505 15.9674 28.2985 16.0081C28.4575 16.0518 28.6029 15.9586 28.6601 15.8138L28.6653 15.7996C28.6936 15.7186 28.7388 15.6228 28.7946 15.5505C28.8424 15.4888 28.9165 15.427 28.9725 15.4065C29.1069 15.3572 29.2022 15.2353 29.1898 15.0929C28.9687 15.1694 28.7634 15.0774 28.638 14.9168ZM20.6002 13.6189C20.3293 13.3673 19.9659 13.334 19.6375 13.4863C19.4913 13.554 19.4547 13.7649 19.5305 13.8945C19.6182 14.0445 19.7918 14.0696 19.9385 14.0015C19.9009 14.019 19.9689 13.996 19.9982 13.9875C20.002 13.9893 20.0512 13.987 20.0682 13.9873L20.0887 13.9886C20.0888 13.9887 20.0838 13.9886 20.0736 13.9883C20.0879 13.9915 20.1021 13.9954 20.116 13.9998L20.1338 14.006C20.1249 14.0041 20.1652 14.0304 20.1764 14.0391L20.1784 14.0408C20.4595 14.3018 20.8824 13.8808 20.6002 13.6189Z" fill="black"/>
<path fillRule="evenodd"clipRule="evenodd" d="M42.2433 36.6185C42.4992 36.1669 43.2626 36.2403 43.3793 36.7671C43.616 37.8348 42.3433 38.8208 41.3766 38.8454C40.416 38.8698 39.3381 38.0519 39.4772 37.0187C39.5116 36.7632 39.8528 36.7942 39.9691 36.9544L40.0143 37.0159C40.3302 37.4405 40.7471 37.88 41.3334 37.7765C41.5764 37.7336 41.7971 37.5818 41.944 37.3863C42.1212 37.1503 42.1017 36.8686 42.2433 36.6185ZM36.1351 28.807C36.2653 28.7711 36.3967 28.785 36.5121 28.8341C36.7696 28.8813 36.9847 29.0961 37.0603 29.3414C37.0663 29.3626 37.073 29.3836 37.0803 29.4043L37.0918 29.4353L37.0609 29.3567C37.0752 29.4341 37.1382 29.5155 37.1608 29.5932C37.1887 29.6888 37.1955 29.7973 37.1861 29.9025C37.268 29.9033 37.3499 29.9061 37.4316 29.9131L37.5106 29.9202C37.9522 29.9613 38.4371 30.0366 38.6989 30.4184C38.8459 30.6329 38.7079 31.0192 38.4378 31.0605C38.0219 31.1241 37.6637 30.8939 37.2493 30.8478C36.8575 30.8042 36.4476 30.8292 36.0609 30.9C35.2625 31.046 34.5289 31.3697 33.7509 31.5728L33.645 31.5997L33.6451 31.5992C33.5118 31.6314 33.3604 31.446 33.4923 31.3375C34.1156 30.8253 34.9136 30.4102 35.6997 30.1574C35.5852 29.9751 35.5498 29.7351 35.6281 29.5394C35.6402 29.4989 35.6553 29.4595 35.6711 29.4202L35.7042 29.3393C35.7074 29.3012 35.7147 29.2635 35.7253 29.2266L35.727 29.2153L35.728 29.216C35.7865 29.0257 35.9394 28.861 36.1351 28.807ZM44.087 28.8365C44.2575 28.6658 44.497 28.6911 44.6749 28.8253L44.6985 28.8438C44.8662 28.9184 45.005 29.0812 45.0961 29.2321C45.1907 29.3888 45.2536 29.5485 45.256 29.721C45.6687 29.7223 46.064 29.8462 46.3669 30.1794C46.4647 30.287 46.5316 30.4529 46.4777 30.5987L46.4457 30.6855C46.3439 30.9609 45.8866 31.1195 45.7311 30.7956L45.7239 30.7798C45.5588 30.3952 44.9247 30.4355 44.5878 30.4748C44.3529 30.5024 44.1209 30.5608 43.8941 30.6262C43.8142 30.6492 43.735 30.6743 43.6559 30.6998L43.5768 30.7255C43.5346 30.7391 43.3147 30.8586 43.4515 30.8303C43.4883 30.8227 43.5159 30.8762 43.4784 30.8942C43.3154 30.9722 43.1415 30.8169 43.1524 30.6418C43.1713 30.3377 43.6539 30.171 43.8861 30.0662L43.9 30.0599C43.989 30.0187 44.0823 29.9792 44.1786 29.9426C44.1244 29.862 44.0797 29.7725 44.0425 29.6765C44.0073 29.5858 43.9838 29.4976 43.9709 29.4011C43.9582 29.354 43.9582 29.3068 43.9709 29.2596L43.9728 29.2461C43.9663 29.2149 43.9632 29.1827 43.9636 29.1503L43.9623 29.1377H43.9636C43.9682 29.0241 44.0133 28.9102 44.087 28.8365ZM41.3634 32.0742C42.0183 32.2766 43.0988 32.8281 42.7575 33.6793C42.2809 34.4611 41.0171 33.8865 40.4047 33.634C39.8545 33.4517 39.568 34.223 40.1001 34.4555C44.4963 36.1955 44.4802 31.6035 41.5228 31.6709C41.1972 31.6783 41.187 32.0069 41.3634 32.0742ZM35.547 26.0867L35.6587 26.0541C36.2392 25.8859 36.8317 25.5954 37.3471 26.0487C37.5495 26.2266 37.5912 26.5965 37.4464 26.8185C37.1165 27.3243 36.6273 27.247 36.0945 27.2901C35.6889 27.323 35.2893 27.4422 34.9106 27.5911C34.6012 27.7129 34.3142 27.8844 34.0432 28.0757C33.777 28.2637 33.5952 28.5577 33.3221 28.727C33.222 28.789 33.1065 28.7252 33.0705 28.6246C32.9432 28.2676 33.1584 27.823 33.3405 27.5188C33.5627 27.1478 33.9004 26.8444 34.2634 26.6148C34.661 26.3633 35.1006 26.2181 35.547 26.0867ZM44.0053 25.7027C44.9866 25.7024 45.9307 26.2483 46.4795 27.0486C46.666 27.3205 46.5293 27.7233 46.2616 27.8799C45.9613 28.0556 45.6402 27.9291 45.4423 27.6773L45.4306 27.662C45.1158 27.2427 44.7101 26.9125 44.2292 26.6975C43.9945 26.5926 43.7351 26.5074 43.4812 26.4643L43.3992 26.4502C43.2842 26.4309 43.1509 26.4125 43.0469 26.4305C42.9912 26.4379 42.94 26.4563 42.8929 26.4843C42.9156 26.5339 42.857 26.5935 42.803 26.5638C42.5592 26.4299 42.5891 26.1909 42.7905 26.0051C43.0754 25.7423 43.6374 25.7027 44.0053 25.7027Z" fill="black"/>
</g>
<rect x="1" y="1" width="58" height="58" rx="29" stroke="#18191F" stroke-width="2"/>
<defs>
<clipPath id="clip0_38_667">
<rect width="60" height="60" rx="30" fill="white"/>
</clipPath>
</defs>
</svg>
